<?xml version="1.0" encoding="utf-8"?>
<svg version="1.1" id="Layer_1" xmlns="http://www.w3.org/2000/svg" xmlns:xlink="http://www.w3.org/1999/xlink" x="0px" y="0px" width="400px" height="425px" viewBox="0 0 400 425" style="enable-background:new 0 0 400 425;" xml:space="preserve">
<style type="text/css">
	.st0{fill:url(#SVGID_1_);}
</style>
<linearGradient id="SVGID_1_" gradientUnits="userSpaceOnUse" x1="-31.46216" y1="310.21136" x2="309.87952" y2="151.04112">
	<stop  offset="0" style="stop-color:#5A5CC1"/>
	<stop  offset="0.50639" style="stop-color:#763AAF"/>
	<stop  offset="1" style="stop-color:#92199E"/>
</linearGradient>
<path class="st0" d="M57.63441,425L0,377.68219h400L57.63441,425z M57.63441,341.54858V0h106.66666
	c37.84947,0,73.9785,18.0668,95.48384,49.03845c38.70969,52.47976,25.80646,126.46761-26.66664,164.32185l97.20433,128.18828
	h-81.72044l-80-105.81984h-46.45161v105.81984H57.63441z M122.15053,171.20447h42.15053l0,0
	c29.24733,0,53.33334-24.08907,53.33334-53.3401s-24.08601-53.34008-53.33333-53.34008h-42.15053
	C122.15053,64.52429,122.15053,171.20447,122.15053,171.20447z"/>
</svg>
